<svg xmlns="http://www.w3.org/2000/svg" viewBox="0 0 500 500"><g id="freepik--Device--inject-171"><g id="freepik--device--inject-171"><path d="M202.51,341.47,236,322.12c3.45-2,5.18-4.6,5.18-7.21s0-4.66,0-4.66l-34.72-19.58a7.35,7.35,0,0,1-3.33-5.77V243.45l-58.46,33.78v41.45a7.35,7.35,0,0,0,3.33,5.77l29.54,17C184.42,345.46,195.61,345.46,202.51,341.47Z" style="fill:#FFFFFF"></path><g style="opacity:0.4"><path d="M202.51,341.47,236,322.12c3.45-2,5.18-4.6,5.18-7.21s0-4.66,0-4.66l-34.72-19.58a7.35,7.35,0,0,1-3.33-5.77V243.45l-58.46,33.78v41.45a7.35,7.35,0,0,0,3.33,5.77l29.54,17C184.42,345.46,195.61,345.46,202.51,341.47Z"></path></g><path d="M158.68,326v4.63L148,324.45a7.38,7.38,0,0,1-3.33-5.77V277.23l11.14-6.42c.23,2.82.48,5.75.71,8.59l-7.81,4.52v32.43a7.31,7.31,0,0,0,3.33,5.77Z" style="opacity:0.2"></path><path d="M148.68,316.36a7.36,7.36,0,0,0,3.33,5.77l25.5,14.69c6.9,4,18.09,4,25,0L236,317.47c6.9-4,6.9-10.44,0-14.42l-25.52-14.7a7.36,7.36,0,0,1-3.33-5.77V250.15l-58.46,33.78Z" style="fill:#FFFFFF"></path><path d="M148.68,316.36a7.36,7.36,0,0,0,3.33,5.77l25.5,14.69c6.9,4,18.09,4,25,0L236,317.47c6.9-4,6.9-10.44,0-14.42l-25.52-14.7a7.36,7.36,0,0,1-3.33-5.77V250.15l-58.46,33.78Z" style="opacity:0.30000000000000004"></path><path d="M217.26,292.27h0l-6.79-3.92a7.36,7.36,0,0,1-3.33-5.77V250.15l-58.46,33.78v32.43a7.36,7.36,0,0,0,3.33,5.77l6.67,3.85Z" style="opacity:0.1"></path><path d="M241.16,310.26v4.65c0,2.62-1.73,5.21-5.18,7.22l-33.47,19.34a25.15,25.15,0,0,1-11.93,3v-4.64a25.15,25.15,0,0,0,11.93-3L236,317.47C239.43,315.49,241.16,312.87,241.16,310.26Z" style="fill:#FFFFFF"></path><path d="M241.16,310.26v4.65c0,2.62-1.73,5.21-5.18,7.22l-33.47,19.34a25.15,25.15,0,0,1-11.93,3v-4.64a25.15,25.15,0,0,0,11.93-3L236,317.47C239.43,315.49,241.16,312.87,241.16,310.26Z" style="opacity:0.2"></path><path d="M54.82,355.48c2.16,1.24,5.77,2.13,8.07.81L289,225.77c2.3-1.33,4.17-9.36,4.17-12V34.86a8.94,8.94,0,0,0-3.91-7.07,8.94,8.94,0,0,0-8.07.15L55.08,158.46a9.22,9.22,0,0,0-4.17,7.22V348.41A8.94,8.94,0,0,0,54.82,355.48Z" style="fill:#455a64"></path><path d="M62.3,361a9.05,9.05,0,0,1-7.48-.13c-3.21-1.84-3.91-5.36-3.91-8V337l7.81,4.52v16.84C58.72,360.75,60.28,361.82,62.3,361Z" style="fill:#FFFFFF"></path><path d="M62.3,361a9.05,9.05,0,0,1-7.48-.13c-3.21-1.84-3.91-5.36-3.91-8V337l7.81,4.52v16.84C58.72,360.75,60.28,361.82,62.3,361Z" style="opacity:0.4"></path><path d="M62.89,356.28,289,225.76c2.3-1.33,4.17-9.35,4.17-12V34.85c0-2.65-1.87-3.73-4.17-2.4L62.89,163a9.2,9.2,0,0,0-4.17,7.21V352.92C58.73,355.57,60.59,357.61,62.89,356.28Z" style="fill:#37474f"></path><path d="M58.72,341.48v16.84c0,2.65,1.87,3.73,4.17,2.4L289,230.2a9.22,9.22,0,0,0,4.17-7.21V206.11Z" style="fill:#FFFFFF"></path><path d="M58.72,341.48v16.84c0,2.65,1.87,3.73,4.17,2.4L289,230.2a9.22,9.22,0,0,0,4.17-7.21V206.11Z" style="opacity:0.30000000000000004"></path><path d="M66.54,320.59V172.77a5.51,5.51,0,0,1,2.5-4.32L282.81,45c1.38-.79,2.5-.15,2.5,1.45V194.28a5.51,5.51,0,0,1-2.5,4.33L69,322C67.66,322.83,66.54,322.18,66.54,320.59Z" style="fill:#FFFFFF"></path><path d="M66.54,320.59V172.77a5.51,5.51,0,0,1,2.5-4.32L282.81,45c1.38-.79,2.5-.15,2.5,1.45V194.28a5.51,5.51,0,0,1-2.5,4.33L69,322C67.66,322.83,66.54,322.18,66.54,320.59Z" style="fill:#FFFFFF"></path><path d="M66.54,320.59V172.77a5.51,5.51,0,0,1,2.5-4.32L282.81,45c1.38-.79,2.5-.15,2.5,1.45V194.28a5.51,5.51,0,0,1-2.5,4.33L69,322C67.66,322.83,66.54,322.18,66.54,320.59Z" style="fill:#fff;opacity:0.5"></path><path d="M175.92,279.8a7.62,7.62,0,0,0-3.44,6c0,2.19,1.54,3.09,3.44,2a7.6,7.6,0,0,0,3.45-6C179.37,279.59,177.83,278.7,175.92,279.8Z" style="fill:#455a64"></path><path d="M60,166.06a8.86,8.86,0,0,0-1.23,4.12v171.3L50.91,337V165.68a8.63,8.63,0,0,1,1.23-4.12Z" style="fill:#263238"></path><polygon points="251.42 83.49 91.88 175.61 91.88 308.84 91.35 309.15 90.41 309.69 88.06 311.05 88.06 173.41 247.6 81.29 250.51 82.97 251.42 83.49" style="fill:#ebebeb"></polygon><polygon points="251.42 83.49 251.42 216.74 97.6 305.54 93.79 307.74 92.84 308.29 91.9 308.82 91.88 308.84 91.88 175.61 251.42 83.49" style="fill:#f0f0f0"></polygon><polygon points="247.6 81.29 251.42 83.5 91.88 175.61 88.06 173.4 247.6 81.29" style="fill:#fafafa"></polygon><polygon points="252.79 82.73 251.42 83.52 91.88 175.63 91.35 175.94 91.35 309.15 90.41 309.69 90.41 175.4 90.96 175.08 250.51 82.97 251.86 82.19 252.79 82.73" style="fill:#FFFFFF"></polygon><polygon points="252.79 82.73 251.42 83.52 91.88 175.63 91.35 175.94 91.35 309.15 90.41 309.69 90.41 175.4 90.96 175.08 250.51 82.97 251.86 82.19 252.79 82.73" style="opacity:0.1"></polygon><path d="M251.42,83.52,91.88,175.63h0l-.53.31v133.2l.53-.31,0,0,.94-.53,1-.55,3.81-2.2,153.82-88.81,1.37-.78V82.73Z" style="fill:#FFFFFF"></path><path d="M251.42,83.52,91.88,175.63h0l-.53.31v133.2l.53-.31,0,0,.94-.53,1-.55,3.81-2.2,153.82-88.81,1.37-.78V82.73Z" style="opacity:0.05"></path><polygon points="251.86 82.19 252.79 82.73 91.34 175.94 90.41 175.4 251.86 82.19" style="fill:#FFFFFF"></polygon><polygon points="251.86 82.19 252.79 82.73 91.34 175.94 90.41 175.4 251.86 82.19" style="fill:#fff;opacity:0.4"></polygon><polygon points="254.28 83.59 252.79 84.45 251.42 85.25 204.81 112.16 92.84 176.8 92.84 308.29 91.9 308.82 91.9 176.26 251.42 84.17 252.79 83.38 253.36 83.05 254.28 83.59" style="fill:#FFFFFF"></polygon><polygon points="254.28 83.59 252.79 84.45 251.42 85.25 204.81 112.16 92.84 176.8 92.84 308.29 91.9 308.82 91.9 176.26 251.42 84.17 252.79 83.38 253.36 83.05 254.28 83.59" style="opacity:0.1"></polygon><path d="M252.79,84.45l-1.37.8-46.61,26.91-112,64.65V308.29l1-.55,3.81-2.2,153.82-88.81,1.37-.78,1.49-.86V83.59Z" style="fill:#FFFFFF"></path><polygon points="253.35 83.05 254.29 83.59 92.84 176.81 91.91 176.26 253.35 83.05" style="fill:#FFFFFF"></polygon><polygon points="253.35 83.05 254.29 83.59 92.84 176.81 91.91 176.26 253.35 83.05" style="fill:#fff;opacity:0.4"></polygon><polygon points="257.15 86.81 254.28 88.47 252.79 89.33 251.42 90.11 97.6 178.91 97.6 305.54 93.79 307.74 93.79 176.71 251.42 85.71 252.79 84.91 253.33 84.61 254.28 85.16 257.15 86.81" style="fill:#ebebeb"></polygon><polygon points="253.32 84.6 257.14 86.8 97.61 178.91 93.79 176.71 253.32 84.6" style="fill:#fafafa"></polygon><polygon points="97.61 178.91 97.61 305.52 257.15 213.41 257.14 86.81 97.61 178.91" style="fill:#e0e0e0"></polygon></g></g><g id="freepik--Notebook--inject-171"><g id="freepik--notebook--inject-171"><path d="M268.46,181.87,257.15,86.81,97.6,178.92l11.64,95.86a247.91,247.91,0,0,0,81.24,155.3l.51.46,159.55-92.11h0A247.89,247.89,0,0,1,268.46,181.87Z" style="fill:#f5f5f5"></path><path d="M105.28,179.55c1.1-.63,2-.12,2,1.15a4.41,4.41,0,0,1-2,3.46c-1.11.64-2,.12-2-1.15A4.41,4.41,0,0,1,105.28,179.55Z" style="fill:#37474f"></path><path d="M99.66,163.64c-2.17-1.26-4.25-1.44-5.86-.51s-2.49,2.82-2.49,5.33a12.24,12.24,0,0,0,.35,2.83l1.33-.77a10.51,10.51,0,0,1-.21-2.06c0-2,.63-3.4,1.76-4.06s2.68-.47,4.38.51a15.2,15.2,0,0,1,6.88,11.91,6.24,6.24,0,0,1-.56,2.76,3.14,3.14,0,0,1-1.19,1.3l-.12.06a4.18,4.18,0,0,0-.63,1.73,4.21,4.21,0,0,0,1.48-.52,4.68,4.68,0,0,0,2.07-2.61,8.14,8.14,0,0,0,.42-2.72A16.84,16.84,0,0,0,99.66,163.64Z" style="fill:#FFFFFF"></path><path d="M115,174c1.1-.64,2-.12,2,1.15a4.43,4.43,0,0,1-2,3.46c-1.11.63-2,.12-2-1.16A4.39,4.39,0,0,1,115,174Z" style="fill:#37474f"></path><path d="M109.35,158c-2.17-1.25-4.25-1.43-5.86-.5s-2.49,2.82-2.49,5.33a12.16,12.16,0,0,0,.35,2.82l1.33-.77a10.41,10.41,0,0,1-.21-2c0-2,.63-3.41,1.76-4.06s2.68-.47,4.38.51a15.19,15.19,0,0,1,6.88,11.91,6,6,0,0,1-.56,2.75,3.2,3.2,0,0,1-1.19,1.3l-.12.07a4.13,4.13,0,0,0-.63,1.73,4.21,4.21,0,0,0,1.48-.52,4.7,4.7,0,0,0,2.07-2.62,8.12,8.12,0,0,0,.42-2.71A16.84,16.84,0,0,0,109.35,158Z" style="fill:#FFFFFF"></path><path d="M124.66,168.36c1.1-.63,2-.12,2,1.15a4.41,4.41,0,0,1-2,3.46c-1.11.64-2,.12-2-1.15A4.41,4.41,0,0,1,124.66,168.36Z" style="fill:#37474f"></path><path d="M119,152.45c-2.17-1.26-4.25-1.44-5.86-.51s-2.49,2.82-2.49,5.33a12.24,12.24,0,0,0,.35,2.83l1.33-.77a10.51,10.51,0,0,1-.21-2.06c0-2,.63-3.4,1.76-4.06s2.68-.47,4.38.51a15.2,15.2,0,0,1,6.88,11.91,6.08,6.08,0,0,1-.56,2.76,3.2,3.2,0,0,1-1.19,1.3l-.12.06a4.33,4.33,0,0,0-.63,1.73,4,4,0,0,0,1.48-.52,4.71,4.71,0,0,0,2.07-2.61,8.14,8.14,0,0,0,.42-2.72A16.84,16.84,0,0,0,119,152.45Z" style="fill:#FFFFFF"></path><path d="M134.35,162.77c1.1-.64,2-.12,2,1.15a4.43,4.43,0,0,1-2,3.46c-1.1.63-2,.12-2-1.16A4.4,4.4,0,0,1,134.35,162.77Z" style="fill:#37474f"></path><path d="M128.73,146.85c-2.17-1.25-4.25-1.43-5.86-.5s-2.49,2.82-2.49,5.33a12.16,12.16,0,0,0,.35,2.82l1.33-.77a10.41,10.41,0,0,1-.21-2c0-2,.63-3.41,1.76-4.06s2.69-.47,4.38.51A15.19,15.19,0,0,1,134.87,160a6,6,0,0,1-.56,2.75,3.2,3.2,0,0,1-1.19,1.3l-.12.07a4.27,4.27,0,0,0-.63,1.73,4.21,4.21,0,0,0,1.48-.52,4.7,4.7,0,0,0,2.07-2.62,8.12,8.12,0,0,0,.42-2.71A16.84,16.84,0,0,0,128.73,146.85Z" style="fill:#FFFFFF"></path><path d="M144,157.17c1.1-.63,2-.12,2,1.15a4.41,4.41,0,0,1-2,3.46c-1.1.64-2,.12-2-1.15A4.44,4.44,0,0,1,144,157.17Z" style="fill:#37474f"></path><path d="M138.42,141.26c-2.17-1.26-4.25-1.44-5.86-.51s-2.49,2.82-2.49,5.33a12.24,12.24,0,0,0,.35,2.83l1.33-.77a10.49,10.49,0,0,1-.2-2.06c0-2,.62-3.4,1.75-4.06s2.69-.47,4.39.51a15.22,15.22,0,0,1,6.87,11.91,6.08,6.08,0,0,1-.56,2.76,3.2,3.2,0,0,1-1.19,1.3l-.12.06a4.48,4.48,0,0,0-.63,1.73,4,4,0,0,0,1.48-.52,4.71,4.71,0,0,0,2.07-2.61,8.14,8.14,0,0,0,.42-2.72A16.84,16.84,0,0,0,138.42,141.26Z" style="fill:#FFFFFF"></path><path d="M153.73,151.58c1.1-.64,2-.12,2,1.15a4.43,4.43,0,0,1-2,3.46c-1.1.63-2,.12-2-1.16A4.4,4.4,0,0,1,153.73,151.58Z" style="fill:#37474f"></path><path d="M148.11,135.66c-2.17-1.25-4.25-1.43-5.86-.5s-2.49,2.82-2.49,5.32a12.74,12.74,0,0,0,.35,2.83l1.33-.77a10.42,10.42,0,0,1-.2-2.06c0-2,.62-3.4,1.75-4s2.69-.47,4.39.51a15.2,15.2,0,0,1,6.87,11.91,6.06,6.06,0,0,1-.56,2.75,3.2,3.2,0,0,1-1.19,1.3l-.12.07a4.43,4.43,0,0,0-.63,1.73,4.34,4.34,0,0,0,1.49-.52,4.69,4.69,0,0,0,2.06-2.62,8.11,8.11,0,0,0,.43-2.71A16.85,16.85,0,0,0,148.11,135.66Z" style="fill:#FFFFFF"></path><path d="M163.42,146c1.1-.63,2-.12,2,1.15a4.41,4.41,0,0,1-2,3.46c-1.1.64-2,.12-2-1.15A4.44,4.44,0,0,1,163.42,146Z" style="fill:#37474f"></path><path d="M157.8,130.07c-2.17-1.26-4.25-1.44-5.86-.51s-2.49,2.82-2.49,5.33a12.81,12.81,0,0,0,.35,2.83l1.33-.77a11.31,11.31,0,0,1-.2-2.06c0-2,.62-3.4,1.75-4.06s2.69-.47,4.39.51a15.22,15.22,0,0,1,6.87,11.91,6.08,6.08,0,0,1-.56,2.76,3.2,3.2,0,0,1-1.19,1.3l-.12.06a4.43,4.43,0,0,0-.63,1.73,4.14,4.14,0,0,0,1.49-.52A4.7,4.7,0,0,0,165,146a8.13,8.13,0,0,0,.43-2.72A16.85,16.85,0,0,0,157.8,130.07Z" style="fill:#FFFFFF"></path><path d="M173.11,140.39c1.1-.64,2-.12,2,1.15a4.43,4.43,0,0,1-2,3.46c-1.1.63-2,.12-2-1.16A4.4,4.4,0,0,1,173.11,140.39Z" style="fill:#37474f"></path><path d="M167.49,124.47c-2.17-1.25-4.25-1.43-5.86-.5s-2.49,2.81-2.49,5.32a12.74,12.74,0,0,0,.35,2.83l1.33-.77a11.22,11.22,0,0,1-.2-2.06c0-2,.62-3.4,1.75-4s2.69-.47,4.39.51a15.2,15.2,0,0,1,6.87,11.91,6.06,6.06,0,0,1-.56,2.75,3.07,3.07,0,0,1-1.19,1.3l-.12.07a4.43,4.43,0,0,0-.63,1.73,4.34,4.34,0,0,0,1.49-.52,4.72,4.72,0,0,0,2.06-2.62,8.11,8.11,0,0,0,.43-2.71A16.85,16.85,0,0,0,167.49,124.47Z" style="fill:#FFFFFF"></path><path d="M182.8,134.79c1.1-.63,2-.12,2,1.15a4.41,4.41,0,0,1-2,3.46c-1.1.64-2,.12-2-1.15A4.44,4.44,0,0,1,182.8,134.79Z" style="fill:#37474f"></path><path d="M177.18,118.88c-2.17-1.26-4.25-1.44-5.86-.51s-2.49,2.82-2.49,5.33a12.81,12.81,0,0,0,.35,2.83l1.33-.77a11.31,11.31,0,0,1-.2-2.06c0-2,.62-3.4,1.75-4.06s2.69-.47,4.39.51a15.22,15.22,0,0,1,6.87,11.91,6,6,0,0,1-.56,2.75,3.16,3.16,0,0,1-1.19,1.31l-.12.06a4.43,4.43,0,0,0-.63,1.73,4.14,4.14,0,0,0,1.49-.52,4.7,4.7,0,0,0,2.06-2.61,8.13,8.13,0,0,0,.43-2.72A16.85,16.85,0,0,0,177.18,118.88Z" style="fill:#FFFFFF"></path><path d="M192.49,129.2c1.1-.64,2-.12,2,1.15a4.43,4.43,0,0,1-2,3.46c-1.1.63-2,.12-2-1.16A4.39,4.39,0,0,1,192.49,129.2Z" style="fill:#37474f"></path><path d="M186.87,113.28c-2.17-1.25-4.25-1.43-5.86-.5s-2.49,2.81-2.49,5.32a12.74,12.74,0,0,0,.35,2.83l1.33-.77a11.22,11.22,0,0,1-.2-2.06c0-2,.62-3.4,1.75-4s2.69-.47,4.39.51A15.2,15.2,0,0,1,193,126.47a6.06,6.06,0,0,1-.56,2.75,3.2,3.2,0,0,1-1.19,1.3l-.12.07a4.43,4.43,0,0,0-.63,1.73,4.34,4.34,0,0,0,1.49-.52,4.75,4.75,0,0,0,2.07-2.62,8.38,8.38,0,0,0,.42-2.71A16.85,16.85,0,0,0,186.87,113.28Z" style="fill:#FFFFFF"></path><path d="M202.18,123.6c1.1-.63,2-.12,2,1.15a4.41,4.41,0,0,1-2,3.46c-1.1.64-2,.12-2-1.15A4.43,4.43,0,0,1,202.18,123.6Z" style="fill:#37474f"></path><path d="M196.56,107.69c-2.17-1.26-4.25-1.44-5.85-.51s-2.5,2.82-2.5,5.33a12.81,12.81,0,0,0,.35,2.83l1.33-.77a11.31,11.31,0,0,1-.2-2.06c0-2,.62-3.4,1.75-4.06s2.69-.47,4.39.51a15.22,15.22,0,0,1,6.87,11.91,6,6,0,0,1-.56,2.75,3.1,3.1,0,0,1-1.19,1.31l-.12.06a4.43,4.43,0,0,0-.63,1.73,4.34,4.34,0,0,0,1.49-.52,4.71,4.71,0,0,0,2.07-2.61,8.14,8.14,0,0,0,.42-2.72A16.85,16.85,0,0,0,196.56,107.69Z" style="fill:#FFFFFF"></path><path d="M211.86,118c1.1-.64,2-.12,2,1.15a4.43,4.43,0,0,1-2,3.46c-1.1.63-2,.12-2-1.15A4.41,4.41,0,0,1,211.86,118Z" style="fill:#37474f"></path><path d="M206.24,102.09c-2.17-1.25-4.25-1.43-5.86-.5s-2.49,2.82-2.49,5.33a12.88,12.88,0,0,0,.35,2.83l1.33-.77a11.31,11.31,0,0,1-.2-2.06c0-2,.62-3.41,1.75-4.06s2.69-.47,4.39.51a15.22,15.22,0,0,1,6.87,11.91,6,6,0,0,1-.56,2.75,3.14,3.14,0,0,1-1.19,1.3l-.12.07a4.43,4.43,0,0,0-.63,1.73,4.34,4.34,0,0,0,1.49-.52,4.75,4.75,0,0,0,2.07-2.62,8.34,8.34,0,0,0,.42-2.71A16.87,16.87,0,0,0,206.24,102.09Z" style="fill:#FFFFFF"></path><path d="M221.55,112.41c1.1-.63,2-.12,2,1.16a4.39,4.39,0,0,1-2,3.45c-1.1.64-2,.12-2-1.15A4.43,4.43,0,0,1,221.55,112.41Z" style="fill:#37474f"></path><path d="M215.93,96.5c-2.17-1.25-4.25-1.44-5.85-.51s-2.49,2.82-2.49,5.33a12.71,12.71,0,0,0,.34,2.83l1.33-.77a11.31,11.31,0,0,1-.2-2.06c0-2,.62-3.4,1.75-4.06s2.69-.47,4.39.52a15.2,15.2,0,0,1,6.87,11.91,6.06,6.06,0,0,1-.56,2.75,3.07,3.07,0,0,1-1.19,1.3l-.12.06a4.47,4.47,0,0,0-.63,1.74,4.56,4.56,0,0,0,1.49-.52,4.74,4.74,0,0,0,2.07-2.62,8.12,8.12,0,0,0,.42-2.71A16.85,16.85,0,0,0,215.93,96.5Z" style="fill:#FFFFFF"></path><path d="M231.24,106.82c1.1-.64,2-.12,2,1.15a4.44,4.44,0,0,1-2,3.46c-1.1.63-2,.12-2-1.15A4.41,4.41,0,0,1,231.24,106.82Z" style="fill:#37474f"></path><path d="M225.63,90.9c-2.18-1.25-4.26-1.43-5.86-.5s-2.49,2.82-2.49,5.33a12.85,12.85,0,0,0,.34,2.83l1.34-.78a10.41,10.41,0,0,1-.21-2c0-2,.62-3.41,1.75-4.06s2.69-.47,4.39.51a15.23,15.23,0,0,1,6.88,11.91,6.17,6.17,0,0,1-.56,2.75,3.22,3.22,0,0,1-1.2,1.3l-.12.07a4.25,4.25,0,0,0-.62,1.73,4.36,4.36,0,0,0,1.48-.52,4.75,4.75,0,0,0,2.07-2.62,8.34,8.34,0,0,0,.42-2.71A16.87,16.87,0,0,0,225.63,90.9Z" style="fill:#FFFFFF"></path><path d="M240.93,101.22c1.1-.63,2-.12,2,1.16a4.4,4.4,0,0,1-2,3.45c-1.1.64-2,.12-2-1.15A4.43,4.43,0,0,1,240.93,101.22Z" style="fill:#37474f"></path><path d="M235.32,85.31c-2.17-1.25-4.26-1.44-5.86-.51S227,87.62,227,90.13a12.71,12.71,0,0,0,.34,2.83l1.34-.77a10.51,10.51,0,0,1-.21-2.06c0-2,.62-3.4,1.75-4.06s2.69-.47,4.39.52a15.21,15.21,0,0,1,6.88,11.91,6.2,6.2,0,0,1-.56,2.75,3.29,3.29,0,0,1-1.2,1.3l-.12.06a4.3,4.3,0,0,0-.62,1.74,4.58,4.58,0,0,0,1.48-.52,4.74,4.74,0,0,0,2.07-2.62,8.38,8.38,0,0,0,.42-2.71A16.84,16.84,0,0,0,235.32,85.31Z" style="fill:#FFFFFF"></path><path d="M250.62,95.63c1.1-.64,2-.12,2,1.15a4.44,4.44,0,0,1-2,3.46c-1.1.63-2,.12-2-1.15A4.41,4.41,0,0,1,250.62,95.63Z" style="fill:#37474f"></path><path d="M245,79.71c-2.17-1.25-4.26-1.43-5.86-.5s-2.49,2.82-2.49,5.33a12.31,12.31,0,0,0,.35,2.83l1.33-.78a10.41,10.41,0,0,1-.21-2c0-2,.62-3.41,1.75-4.06s2.69-.47,4.39.51a15.23,15.23,0,0,1,6.88,11.91,6.17,6.17,0,0,1-.56,2.75,3.16,3.16,0,0,1-1.2,1.3l-.12.07a4.25,4.25,0,0,0-.62,1.73,4.36,4.36,0,0,0,1.48-.52,4.7,4.7,0,0,0,2.07-2.62,8.08,8.08,0,0,0,.42-2.71A16.84,16.84,0,0,0,245,79.71Z" style="fill:#FFFFFF"></path><path d="M245,79.71c-2.17-1.25-4.26-1.43-5.86-.5s-2.49,2.82-2.49,5.33a11.26,11.26,0,0,0,.16,1.81,13,13,0,0,0-1.5-1c-2.18-1.25-4.26-1.44-5.86-.51S227,87.62,227,90.13a11.49,11.49,0,0,0,.16,1.82,12,12,0,0,0-1.5-1c-2.18-1.25-4.26-1.43-5.86-.5s-2.49,2.82-2.49,5.33a11.26,11.26,0,0,0,.16,1.81,12.31,12.31,0,0,0-1.51-1c-2.17-1.25-4.25-1.44-5.85-.51s-2.49,2.82-2.49,5.33a11.49,11.49,0,0,0,.16,1.82,11.38,11.38,0,0,0-1.51-1c-2.17-1.25-4.25-1.43-5.86-.5s-2.49,2.82-2.49,5.33a11.28,11.28,0,0,0,.17,1.8,11.12,11.12,0,0,0-1.5-1c-2.17-1.26-4.25-1.44-5.85-.51s-2.5,2.82-2.5,5.33a11.29,11.29,0,0,0,.17,1.81,12.31,12.31,0,0,0-1.51-1c-2.17-1.25-4.25-1.43-5.86-.5s-2.49,2.81-2.49,5.32a11.52,11.52,0,0,0,.17,1.82,10.43,10.43,0,0,0-1.51-1c-2.17-1.26-4.25-1.44-5.86-.51s-2.49,2.82-2.49,5.33a11.29,11.29,0,0,0,.17,1.81,12.31,12.31,0,0,0-1.51-1c-2.17-1.25-4.25-1.43-5.86-.5s-2.49,2.81-2.49,5.32a11.42,11.42,0,0,0,.17,1.82,11.29,11.29,0,0,0-1.51-1c-2.17-1.26-4.25-1.44-5.86-.51s-2.49,2.82-2.49,5.33a11.29,11.29,0,0,0,.17,1.81,12.31,12.31,0,0,0-1.51-1c-2.17-1.25-4.25-1.43-5.86-.5s-2.49,2.82-2.49,5.32a11.42,11.42,0,0,0,.17,1.82,11.29,11.29,0,0,0-1.51-1c-2.17-1.26-4.25-1.44-5.86-.51s-2.49,2.82-2.49,5.33a11.29,11.29,0,0,0,.17,1.81,12.31,12.31,0,0,0-1.51-1c-2.17-1.25-4.25-1.43-5.86-.5s-2.49,2.82-2.49,5.33a11.4,11.4,0,0,0,.17,1.81,11.29,11.29,0,0,0-1.51-1c-2.17-1.26-4.25-1.44-5.86-.51s-2.49,2.82-2.49,5.33a11.29,11.29,0,0,0,.17,1.81,12.31,12.31,0,0,0-1.51-1c-2.17-1.25-4.25-1.43-5.86-.5s-2.49,2.82-2.49,5.33a11.4,11.4,0,0,0,.17,1.81,11.29,11.29,0,0,0-1.51-1c-2.17-1.26-4.25-1.44-5.86-.51s-2.49,2.82-2.49,5.33a12.24,12.24,0,0,0,.35,2.83l1.33-.77a10.51,10.51,0,0,1-.21-2.06c0-2,.63-3.4,1.76-4.06s2.68-.47,4.38.51a15.2,15.2,0,0,1,6.88,11.91,6.24,6.24,0,0,1-.56,2.76,3.14,3.14,0,0,1-1.19,1.3l-.12.06a4.18,4.18,0,0,0-.63,1.73,4.21,4.21,0,0,0,1.48-.52,4.68,4.68,0,0,0,2.07-2.61,8.14,8.14,0,0,0,.42-2.72c0-3.93-2.24-8.56-5.33-11.47l.74-.43a10.41,10.41,0,0,1-.21-2c0-2,.63-3.41,1.76-4.06s2.68-.47,4.38.51a15.19,15.19,0,0,1,6.88,11.91,6,6,0,0,1-.56,2.75,3.2,3.2,0,0,1-1.19,1.3l-.12.07a4.13,4.13,0,0,0-.63,1.73,4.21,4.21,0,0,0,1.48-.52,4.7,4.7,0,0,0,2.07-2.62,8.12,8.12,0,0,0,.42-2.71c0-3.93-2.24-8.57-5.33-11.47l.74-.43a10.51,10.51,0,0,1-.21-2.06c0-2,.63-3.4,1.76-4.06s2.68-.47,4.38.51a15.2,15.2,0,0,1,6.88,11.91,6.08,6.08,0,0,1-.56,2.76,3.2,3.2,0,0,1-1.19,1.3l-.12.06a4.27,4.27,0,0,0-.63,1.73,4,4,0,0,0,1.48-.52,4.71,4.71,0,0,0,2.07-2.61,8.14,8.14,0,0,0,.42-2.72c0-3.93-2.24-8.56-5.33-11.47l.74-.43a10.41,10.41,0,0,1-.21-2c0-2,.63-3.41,1.76-4.06s2.69-.47,4.38.51A15.19,15.19,0,0,1,134.87,160a6,6,0,0,1-.56,2.75,3.2,3.2,0,0,1-1.19,1.3l-.12.07a4.27,4.27,0,0,0-.63,1.73,4.21,4.21,0,0,0,1.48-.52,4.7,4.7,0,0,0,2.07-2.62,8.12,8.12,0,0,0,.42-2.71c0-3.93-2.24-8.57-5.33-11.47l.74-.43a10.49,10.49,0,0,1-.2-2.06c0-2,.62-3.4,1.75-4.06s2.69-.47,4.38.51a15.2,15.2,0,0,1,6.88,11.91,6.08,6.08,0,0,1-.56,2.76,3.2,3.2,0,0,1-1.19,1.3l-.12.06a4.43,4.43,0,0,0-.63,1.73,4.14,4.14,0,0,0,1.49-.52,4.74,4.74,0,0,0,2.06-2.61,8.13,8.13,0,0,0,.43-2.72c0-3.93-2.25-8.56-5.34-11.47l.74-.43a10.42,10.42,0,0,1-.2-2.06c0-2,.62-3.4,1.75-4s2.69-.47,4.39.51a15.2,15.2,0,0,1,6.87,11.91,6.06,6.06,0,0,1-.56,2.75,3.2,3.2,0,0,1-1.19,1.3l-.12.07a4.43,4.43,0,0,0-.63,1.73,4.34,4.34,0,0,0,1.49-.52,4.69,4.69,0,0,0,2.06-2.62,8.11,8.11,0,0,0,.43-2.71c0-3.93-2.25-8.57-5.34-11.47l.74-.43a11.31,11.31,0,0,1-.2-2.06c0-2,.62-3.4,1.75-4.06s2.69-.47,4.39.51a15.22,15.22,0,0,1,6.87,11.91,6.08,6.08,0,0,1-.56,2.76,3.2,3.2,0,0,1-1.19,1.3l-.12.06a4.43,4.43,0,0,0-.63,1.73,4.14,4.14,0,0,0,1.49-.52A4.7,4.7,0,0,0,165,146a8.13,8.13,0,0,0,.43-2.72c0-3.93-2.25-8.56-5.34-11.47l.74-.43a11.22,11.22,0,0,1-.2-2.06c0-2,.62-3.4,1.75-4s2.69-.47,4.39.51a15.2,15.2,0,0,1,6.87,11.91,6.06,6.06,0,0,1-.56,2.75,3.07,3.07,0,0,1-1.19,1.3l-.12.07a4.43,4.43,0,0,0-.63,1.73,4.34,4.34,0,0,0,1.49-.52,4.72,4.72,0,0,0,2.06-2.62,8.11,8.11,0,0,0,.43-2.71c0-3.93-2.25-8.57-5.34-11.47l.74-.43a11.31,11.31,0,0,1-.2-2.06c0-2,.62-3.4,1.75-4.06s2.69-.47,4.39.51a15.22,15.22,0,0,1,6.87,11.91,6,6,0,0,1-.56,2.75,3.16,3.16,0,0,1-1.19,1.31l-.12.06a4.43,4.43,0,0,0-.63,1.73,4.14,4.14,0,0,0,1.49-.52,4.7,4.7,0,0,0,2.06-2.61,8.13,8.13,0,0,0,.43-2.72c0-3.93-2.25-8.56-5.34-11.47l.74-.43a11.22,11.22,0,0,1-.2-2.06c0-2,.62-3.4,1.75-4s2.69-.47,4.39.51A15.2,15.2,0,0,1,193,126.47a6.06,6.06,0,0,1-.56,2.75,3.2,3.2,0,0,1-1.19,1.3l-.12.07a4.43,4.43,0,0,0-.63,1.73,4.34,4.34,0,0,0,1.49-.52,4.75,4.75,0,0,0,2.07-2.62,8.38,8.38,0,0,0,.42-2.71c0-3.93-2.25-8.57-5.34-11.47l.74-.43a11.31,11.31,0,0,1-.2-2.06c0-2,.62-3.4,1.75-4.06s2.69-.47,4.39.51a15.22,15.22,0,0,1,6.87,11.91,6,6,0,0,1-.56,2.75,3.1,3.1,0,0,1-1.19,1.31l-.12.06a4.43,4.43,0,0,0-.63,1.73,4.34,4.34,0,0,0,1.49-.52,4.71,4.71,0,0,0,2.07-2.61,8.14,8.14,0,0,0,.42-2.72c0-3.93-2.25-8.57-5.34-11.47l.73-.42a11.31,11.31,0,0,1-.2-2.06c0-2,.62-3.41,1.75-4.06s2.69-.47,4.39.51a15.22,15.22,0,0,1,6.87,11.91,6,6,0,0,1-.56,2.75,3.14,3.14,0,0,1-1.19,1.3l-.12.07a4.43,4.43,0,0,0-.63,1.73,4.34,4.34,0,0,0,1.49-.52,4.75,4.75,0,0,0,2.07-2.62,8.34,8.34,0,0,0,.42-2.71c0-3.93-2.25-8.57-5.34-11.47l.74-.43a11.31,11.31,0,0,1-.2-2.06c0-2,.62-3.4,1.75-4.06s2.69-.47,4.39.52a15.2,15.2,0,0,1,6.87,11.91,6.06,6.06,0,0,1-.56,2.75,3.07,3.07,0,0,1-1.19,1.3l-.12.06a4.47,4.47,0,0,0-.63,1.74,4.56,4.56,0,0,0,1.49-.52,4.74,4.74,0,0,0,2.07-2.62,8.12,8.12,0,0,0,.42-2.71c0-3.94-2.25-8.57-5.34-11.47l.75-.44a10.41,10.41,0,0,1-.21-2c0-2,.62-3.41,1.75-4.06s2.69-.47,4.39.51a15.23,15.23,0,0,1,6.88,11.91,6.17,6.17,0,0,1-.56,2.75,3.22,3.22,0,0,1-1.2,1.3l-.12.07a4.25,4.25,0,0,0-.62,1.73,4.36,4.36,0,0,0,1.48-.52,4.75,4.75,0,0,0,2.07-2.62,8.34,8.34,0,0,0,.42-2.71c0-3.93-2.25-8.57-5.34-11.47l.75-.43a10.51,10.51,0,0,1-.21-2.06c0-2,.62-3.4,1.75-4.06s2.69-.47,4.39.52a15.21,15.21,0,0,1,6.88,11.91,6.2,6.2,0,0,1-.56,2.75,3.29,3.29,0,0,1-1.2,1.3l-.12.06a4.3,4.3,0,0,0-.62,1.74,4.58,4.58,0,0,0,1.48-.52,4.74,4.74,0,0,0,2.07-2.62,8.38,8.38,0,0,0,.42-2.71c0-3.94-2.25-8.57-5.34-11.48l.75-.43a10.41,10.41,0,0,1-.21-2c0-2,.62-3.41,1.75-4.06s2.69-.47,4.39.51a15.23,15.23,0,0,1,6.88,11.91,6.17,6.17,0,0,1-.56,2.75,3.16,3.16,0,0,1-1.2,1.3l-.12.07a4.25,4.25,0,0,0-.62,1.73,4.36,4.36,0,0,0,1.48-.52,4.7,4.7,0,0,0,2.07-2.62,8.08,8.08,0,0,0,.42-2.71A16.84,16.84,0,0,0,245,79.71Z" style="opacity:0.4"></path><path d="M114.22,191.54,245.5,115.75c2.29-1.32,4.4-.27,4.71,2.36l2.18,18a7.87,7.87,0,0,1-3.58,7.15L117.58,218.94c-2.29,1.32-4.41.26-4.73-2.36l-2.2-17.89A7.84,7.84,0,0,1,114.22,191.54Z" style="fill:#FFFFFF"></path><path d="M125.93,205.81l-1.73,1.36-2.39-11.59-.53,11.56,1.23-.41-.08,1.23L119,210l.08-1.24,1.13-.94.54-12.15-1.15.3.08-1.19,3.56-2.05,2.13,10.62,2.37-13.22,3.53-2-.08,1.24-1,.86.27,11.72,1.21-.42-.08,1.23L127.53,205l.08-1.23,1.13-.93-.24-11.4Z" style="fill:#fafafa"></path><path d="M133.81,206.24c-.77.44-1.29.13-1.29-.78a2.87,2.87,0,0,1,1.17-2.49l.18.59c.13.41.27.75.61.55s.55-.82.77-1.69l.57-2.19-.36.21c-.55.32-.91.12-1.25-.53a15.19,15.19,0,0,1-.74-5.71v-1.61c0-.45-.1-.54-.3-.42a3.7,3.7,0,0,0-.7.68l-.22-1a6.68,6.68,0,0,1,1.74-1.68c.94-.54,1.23.12,1.23,1.24,0,.48,0,1,0,1.6a17,17,0,0,0,.51,5c.16.52.34.5.53.39l.06,0,1.47-6.35c.29-1.24.14-1.45-.32-1.44H137a2.76,2.76,0,0,1,1.07-2.72c.68-.39,1.12,0,1.12,1.18a25.19,25.19,0,0,1-.92,5.08l-1.74,7C135.9,203.51,135.31,205.37,133.81,206.24Z" style="fill:#fafafa"></path><path d="M144.45,194.55l.35-14.15-1.1.19.08-1.19L146.2,178l.22.1-.17,7.1-.41,5.21.11,0,.51-3.21c.52-3.29,1.1-4.89,2.42-5.65,1.48-.86,2.14.6,2.14,3.39,0,4.41-1.45,7.66-3.6,8.9A5.05,5.05,0,0,1,144.45,194.55Zm2.45-5-.52,3a1.18,1.18,0,0,0,1-.19c1.28-.74,1.77-3.65,1.77-6.21,0-1.3,0-2.9-.63-2.54S147.59,185.52,146.9,189.54Z" style="fill:#fafafa"></path><path d="M152.32,175.62l.11-1.21L154.9,173l.22.11-.3,13.93c0,.58.05.86.36.68a2.67,2.67,0,0,0,.72-.89l.32.84a6,6,0,0,1-1.83,2.15c-.85.5-1.33.08-1.29-1.45l.34-12.94Z" style="fill:#fafafa"></path><path d="M160.54,174.81c2.07-1.2,3,.46,3,3.61s-1,6.67-3.41,8.07c-1.95,1.12-3-.34-3-3.54S158,176.27,160.54,174.81Zm1.17,4.65c0-2.3-.22-3.8-1.25-3.21-1.27.73-1.47,3.28-1.47,5.65s.28,3.67,1.27,3.1C161.47,184.3,161.71,182,161.71,179.46Z" style="fill:#fafafa"></path><path d="M169.89,175l-.29,1.76c-.59,3.56-1.1,4.91-2.3,5.6-1.56.9-2.24-.82-2.24-3.34,0-4,1.31-7.55,3.32-8.71a3.32,3.32,0,0,1,1.69-.47l.92-1.06.55-.1-.22,9.37c-.09,3.56-1.42,7.4-4.14,9-1.09.63-2.23.61-2.23-.93a2.57,2.57,0,0,1,1-2.2.74.74,0,0,1,.91.07l-.13.62c-.22,1.06-.07,1.4.65,1,1.43-.82,2.19-3.16,2.36-6.5l.22-4.09Zm-.65-.72.47-2.83a1.15,1.15,0,0,0-1,.17c-1.29.74-1.8,3.47-1.8,6.37,0,1.88.08,2.83.69,2.48S168.49,178.85,169.24,174.25Z" style="fill:#fafafa"></path><path d="M245.61,129.88l0,.21a5.49,5.49,0,0,1-2.51,5l-61.72,35.6A2.05,2.05,0,0,1,178.1,169l0-.18a5.52,5.52,0,0,1,2.5-5l61.73-35.63A2.05,2.05,0,0,1,245.61,129.88Z" style="fill:#fafafa"></path><path d="M238,138.05l5.12-3a5.49,5.49,0,0,0,2.51-5l0-.21a2.05,2.05,0,0,0-3.3-1.66l-5.12,3Z" style="fill:#455a64"></path><path d="M144.34,212.61a3.87,3.87,0,0,1-1.8,3.51L116.8,231a1.45,1.45,0,0,1-2.35-1.12,3.85,3.85,0,0,1,1.79-3.51L142,211.49A1.44,1.44,0,0,1,144.34,212.61Z" style="fill:#455a64;opacity:0.4"></path><path d="M204.12,178.1a3.88,3.88,0,0,1-1.8,3.51l-50.67,29.25a1.45,1.45,0,0,1-2.35-1.12,3.87,3.87,0,0,1,1.8-3.51L201.77,177A1.45,1.45,0,0,1,204.12,178.1Z" style="fill:#455a64;opacity:0.4"></path><path d="M252.12,152.86l-40.69,23.49a1.45,1.45,0,0,1-2.35-1.12,3.87,3.87,0,0,1,1.8-3.51l40.71-23.51a1.44,1.44,0,0,1,2.34,1.13A3.9,3.9,0,0,1,252.12,152.86Z" style="fill:#455a64;opacity:0.4"></path><path d="M135.79,229.42a3.87,3.87,0,0,1-1.8,3.51L118.2,242a1.49,1.49,0,0,1-2.42-1.08,3.74,3.74,0,0,1,1.73-3.48l15.92-9.18A1.45,1.45,0,0,1,135.79,229.42Z" style="fill:#455a64;opacity:0.4"></path><path d="M185.54,200.69a3.88,3.88,0,0,1-1.79,3.51L143.1,227.67a1.44,1.44,0,0,1-2.35-1.12,3.88,3.88,0,0,1,1.79-3.51l40.64-23.46A1.45,1.45,0,0,1,185.54,200.69Z" style="fill:#455a64;opacity:0.4"></path><path d="M253.52,163.92l-60.66,35a1.45,1.45,0,0,1-2.36-1.13,3.89,3.89,0,0,1,1.8-3.51l60.56-35a1.49,1.49,0,0,1,2.41,1.09A3.74,3.74,0,0,1,253.52,163.92Z" style="fill:#455a64;opacity:0.4"></path><path d="M157,228.81a3.88,3.88,0,0,1-1.8,3.52l-35.59,20.55a1.54,1.54,0,0,1-2.48-1,3.53,3.53,0,0,1,1.66-3.43l35.86-20.71A1.45,1.45,0,0,1,157,228.81Z" style="fill:#455a64;opacity:0.4"></path><path d="M221.66,191.45a3.86,3.86,0,0,1-1.79,3.52l-55,31.74a1.45,1.45,0,0,1-2.35-1.12,3.89,3.89,0,0,1,1.8-3.52l55-31.74A1.45,1.45,0,0,1,221.66,191.45Z" style="fill:#455a64;opacity:0.4"></path><path d="M254.88,174.76l-25.9,15a1.45,1.45,0,0,1-2.36-1.12,3.9,3.9,0,0,1,1.8-3.52l25.67-14.82a1.54,1.54,0,0,1,2.47,1.06A3.58,3.58,0,0,1,254.88,174.76Z" style="fill:#455a64;opacity:0.4"></path><path d="M178.16,228a3.85,3.85,0,0,1-1.79,3.51l-55.47,32a1.59,1.59,0,0,1-2.54-1,3.4,3.4,0,0,1,1.6-3.41l55.84-32.24A1.45,1.45,0,0,1,178.16,228Z" style="fill:#455a64;opacity:0.4"></path><path d="M208,210.75a3.86,3.86,0,0,1-1.79,3.51l-20.76,12a1.44,1.44,0,0,1-2.35-1.12,3.86,3.86,0,0,1,1.79-3.51l20.75-12A1.45,1.45,0,0,1,208,210.75Z" style="fill:#455a64;opacity:0.4"></path><path d="M256.22,185.4,216,208.64a1.45,1.45,0,0,1-2.35-1.12,3.87,3.87,0,0,1,1.79-3.52l39.9-23a1.58,1.58,0,0,1,2.53,1A3.44,3.44,0,0,1,256.22,185.4Z" style="fill:#455a64;opacity:0.4"></path><path d="M129.78,268a3.78,3.78,0,0,1-1.75,3.5l-5.59,3.23a1.66,1.66,0,0,1-2.62-1,3.26,3.26,0,0,1,1.53-3.37l6-3.49A1.48,1.48,0,0,1,129.78,268Z" style="fill:#455a64;opacity:0.4"></path><path d="M157,252.34a3.76,3.76,0,0,1-1.74,3.49l-18,10.4a1.48,1.48,0,0,1-2.41-1.09,3.76,3.76,0,0,1,1.75-3.49l18-10.41A1.47,1.47,0,0,1,157,252.34Z" style="fill:#455a64;opacity:0.4"></path><path d="M194.33,230.76a3.68,3.68,0,0,1-1.71,3.47l-28.26,16.31a1.49,1.49,0,0,1-2.41-1.09A3.76,3.76,0,0,1,163.7,246l28.21-16.28A1.5,1.5,0,0,1,194.33,230.76Z" style="fill:#455a64;opacity:0.4"></path><path d="M146.52,271.34a3.52,3.52,0,0,1-1.65,3.43L124.5,286.53a1.71,1.71,0,0,1-2.68-.93,3.11,3.11,0,0,1,1.47-3.32l20.74-12A1.55,1.55,0,0,1,146.52,271.34Z" style="fill:#455a64;opacity:0.4"></path><path d="M176.39,254.1a3.5,3.5,0,0,1-1.64,3.42l-12.7,7.33-7.87,4.54a1.56,1.56,0,0,1-2.51-1,3.53,3.53,0,0,1,1.66-3.43l20.57-11.88A1.55,1.55,0,0,1,176.39,254.1Z" style="fill:#455a64;opacity:0.4"></path><path d="M196.35,242.57a3.52,3.52,0,0,1-1.64,3.43l-10.66,6.15a1.56,1.56,0,0,1-2.5-1,3.51,3.51,0,0,1,1.66-3.43l10.66-6.15A1.54,1.54,0,0,1,196.35,242.57Z" style="fill:#455a64;opacity:0.4"></path><path d="M164.08,274a3.29,3.29,0,0,1-1.54,3.38L127,297.91a1.79,1.79,0,0,1-2.75-.89,3,3,0,0,1,1.4-3.29l35.81-20.68A1.63,1.63,0,0,1,164.08,274Z" style="fill:#455a64;opacity:0.4"></path><path d="M198.74,254a3.34,3.34,0,0,1-1.56,3.39l-25.55,14.75a1.64,1.64,0,0,1-2.6-1,3.32,3.32,0,0,1,1.56-3.39L196.17,253A1.62,1.62,0,0,1,198.74,254Z" style="fill:#455a64;opacity:0.4"></path><path d="M147.08,296.55a3.1,3.1,0,0,1-1.45,3.32l-15.63,9a1.84,1.84,0,0,1-2.8-.86,2.84,2.84,0,0,1,1.34-3.25l15.86-9.16A1.72,1.72,0,0,1,147.08,296.55Z" style="fill:#455a64;opacity:0.4"></path><path d="M175.52,282.61l-20.78,12a1.74,1.74,0,0,1-2.71-.92,3.12,3.12,0,0,1,1.47-3.33l20.8-12a1.71,1.71,0,0,1,2.67.93A3.09,3.09,0,0,1,175.52,282.61Z" style="fill:#455a64;opacity:0.4"></path><path d="M201.54,265.11a3.13,3.13,0,0,1-1.46,3.33l-15.46,8.92a1.73,1.73,0,0,1-2.7-.92,3.12,3.12,0,0,1,1.47-3.33l15.49-8.94A1.7,1.7,0,0,1,201.54,265.11Z" style="fill:#455a64;opacity:0.4"></path><path d="M170.38,295.64a2.91,2.91,0,0,1-1.37,3.27l-35.62,20.57a1.93,1.93,0,0,1-2.88-.83,2.74,2.74,0,0,1,1.28-3.22l35.81-20.67A1.81,1.81,0,0,1,170.38,295.64Z" style="fill:#455a64;opacity:0.4"></path><path d="M204.87,275.72a2.86,2.86,0,0,1-1.33,3.25l-25.43,14.68a1.82,1.82,0,0,1-2.78-.87,2.9,2.9,0,0,1,1.37-3.27l25.39-14.66A1.82,1.82,0,0,1,204.87,275.72Z" style="fill:#455a64;opacity:0.4"></path><path d="M194,294.35a2.76,2.76,0,0,1-1.29,3.22l-55.6,32.1a2,2,0,0,1-2.93-.78,2.61,2.61,0,0,1,1.21-3.18l55.75-32.19A1.9,1.9,0,0,1,194,294.35Z" style="fill:#FFFFFF"></path><path d="M233.89,271.34a2.74,2.74,0,0,1-1.28,3.22l-31.15,18a1.92,1.92,0,0,1-2.87-.83,2.74,2.74,0,0,1,1.28-3.22l31.16-18A1.9,1.9,0,0,1,233.89,271.34Z" style="fill:#455a64;opacity:0.4"></path><path d="M272.47,251.55l-31.15,18a1.92,1.92,0,0,1-2.87-.82,2.74,2.74,0,0,1,1.28-3.22l31-17.92a2,2,0,0,1,2.92.79A2.64,2.64,0,0,1,272.47,251.55Z" style="fill:#455a64;opacity:0.4"></path><path d="M158.21,327.24a2.61,2.61,0,0,1-1.2,3.17l-15.72,9.08a2.08,2.08,0,0,1-3-.75,2.5,2.5,0,0,1,1.14-3.14l15.85-9.15A2,2,0,0,1,158.21,327.24Z" style="fill:#455a64;opacity:0.4"></path><path d="M213.05,295.58a2.63,2.63,0,0,1-1.22,3.18L166.22,325.1a2,2,0,0,1-3-.78,2.63,2.63,0,0,1,1.22-3.18l45.65-26.35A2,2,0,0,1,213.05,295.58Z" style="fill:#455a64;opacity:0.4"></path><path d="M255.51,271.07a2.63,2.63,0,0,1-1.22,3.18L221,293.45a2,2,0,0,1-2.94-.79,2.66,2.66,0,0,1,1.23-3.19l33.26-19.2A2,2,0,0,1,255.51,271.07Z" style="fill:#455a64;opacity:0.4"></path><path d="M276.61,261.37l-13.1,7.56a2,2,0,0,1-2.95-.77,2.66,2.66,0,0,1,1.23-3.19l13-7.5a2.06,2.06,0,0,1,3,.75A2.54,2.54,0,0,1,276.61,261.37Z" style="fill:#455a64;opacity:0.4"></path><path d="M182.61,325.19a2.48,2.48,0,0,1-1.12,3.13l-35.74,20.62a2.16,2.16,0,0,1-3.06-.71,2.4,2.4,0,0,1,1.08-3.1l35.81-20.67A2.11,2.11,0,0,1,182.61,325.19Z" style="fill:#455a64;opacity:0.4"></path><path d="M232.48,296.4a2.48,2.48,0,0,1-1.12,3.13l-40.75,23.52a2.12,2.12,0,0,1-3-.73,2.45,2.45,0,0,1,1.12-3.12l40.75-23.53A2.12,2.12,0,0,1,232.48,296.4Z" style="fill:#455a64;opacity:0.4"></path><path d="M281.07,270.82l-40.6,23.44a2.11,2.11,0,0,1-3-.73,2.46,2.46,0,0,1,1.12-3.13L279.12,267a2.14,2.14,0,0,1,3.05.72A2.42,2.42,0,0,1,281.07,270.82Z" style="fill:#455a64;opacity:0.4"></path><path d="M157.41,351.58a2.37,2.37,0,0,1-1,3.09L150.53,358a2.26,2.26,0,0,1-3.13-.67,2.31,2.31,0,0,1,1-3.07l5.89-3.4A2.22,2.22,0,0,1,157.41,351.58Z" style="fill:#455a64;opacity:0.4"></path><path d="M207.19,322.84a2.34,2.34,0,0,1-1.05,3.08l-40.6,23.45a2.22,2.22,0,0,1-3.1-.69,2.35,2.35,0,0,1,1.05-3.09l40.6-23.44A2.21,2.21,0,0,1,207.19,322.84Z" style="fill:#455a64;opacity:0.4"></path><path d="M257,294.07a2.34,2.34,0,0,1-1.05,3.08l-40.66,23.48a2.21,2.21,0,0,1-3.1-.69,2.35,2.35,0,0,1,1.05-3.09l40.66-23.48A2.21,2.21,0,0,1,257,294.07Z" style="fill:#455a64;opacity:0.4"></path><path d="M285.85,279.91l-20.68,11.94a2.22,2.22,0,0,1-3.1-.69,2.37,2.37,0,0,1,1.05-3.09l20.65-11.91a2.23,2.23,0,0,1,3.11.68A2.31,2.31,0,0,1,285.85,279.91Z" style="fill:#455a64;opacity:0.4"></path><path d="M182.31,348.87a2.24,2.24,0,0,1-1,3l-25.74,14.86a2.35,2.35,0,0,1-3.19-.63,2.21,2.21,0,0,1,.95-3l25.79-14.89A2.32,2.32,0,0,1,182.31,348.87Z" style="fill:#455a64;opacity:0.4"></path><path d="M232.17,320.08a2.26,2.26,0,0,1-1,3.05L190.6,346.56a2.3,2.3,0,0,1-3.16-.65,2.27,2.27,0,0,1,1-3.05L229,319.44A2.32,2.32,0,0,1,232.17,320.08Z" style="fill:#455a64;opacity:0.4"></path><path d="M290.91,288.65l-50.45,29.13a2.29,2.29,0,0,1-3.16-.66,2.26,2.26,0,0,1,1-3.05L288.7,285a2.34,2.34,0,0,1,3.18.64A2.23,2.23,0,0,1,290.91,288.65Z" style="fill:#455a64;opacity:0.4"></path><path d="M207.52,345.79a2.15,2.15,0,0,1-.91,3l-45.69,26.38a2.46,2.46,0,0,1-3.26-.6,2.12,2.12,0,0,1,.88-3l45.73-26.4A2.43,2.43,0,0,1,207.52,345.79Z" style="fill:#455a64;opacity:0.4"></path><path d="M257.3,317.05a2.16,2.16,0,0,1-.91,3l-40.57,23.42a2.42,2.42,0,0,1-3.24-.61,2.14,2.14,0,0,1,.9-3l40.58-23.42A2.42,2.42,0,0,1,257.3,317.05Z" style="fill:#455a64;opacity:0.4"></path><path d="M296.24,297.05,265.6,314.73a2.41,2.41,0,0,1-3.23-.61,2.15,2.15,0,0,1,.91-3l30.61-17.67a2.43,2.43,0,0,1,3.25.61A2.14,2.14,0,0,1,296.24,297.05Z" style="fill:#455a64;opacity:0.4"></path><path d="M271.14,241.51,211.34,276c-.3-.78-.57-1.57-.85-2.35-.08-.22-.16-.45-.23-.67l-.81-2.37c-.27-.8-.53-1.59-.78-2.4-4.12-12.93-7.11-27.06-9.5-43l59.73-34.46A250.82,250.82,0,0,0,267.07,229c.37,1.24.74,2.46,1.13,3.67.32,1,.64,2,1,3.05Q270.13,238.66,271.14,241.51Z" style="fill:#FFFFFF"></path><path d="M271.14,241.51,211.34,276c-.3-.78-.57-1.57-.85-2.35-.08-.22-.16-.45-.23-.67l-.81-2.37c-.27-.8-.53-1.59-.78-2.4-4.12-12.93-7.11-27.06-9.5-43l59.73-34.46A250.82,250.82,0,0,0,267.07,229c.37,1.24.74,2.46,1.13,3.67.32,1,.64,2,1,3.05Q270.13,238.66,271.14,241.51Z" style="opacity:0.5"></path><path d="M271.14,241.51,211.34,276c-.3-.78-.57-1.57-.85-2.35-.08-.22-.16-.45-.23-.67l-.81-2.37c-.27-.8-.53-1.59-.78-2.4,2.23-9.3,9.84-40.21,9.84-40.21l33.42,18.83L245.11,240l5.39-17.52L267.07,229h0q.56,1.85,1.11,3.66c.33,1,.65,2,1,3.05Q270.13,238.66,271.14,241.51Z" style="fill:#FFFFFF"></path><path d="M238.64,209.83c2.22-1.29,4.43,0,5,2.94s-.67,6.28-2.89,7.56-4.57,0-5.16-2.91S236.42,211.12,238.64,209.83Z" style="fill:#FFFFFF"></path></g></g></svg>